<svg width="18" height="18" viewBox="0 0 18 18" fill="none" xmlns="http://www.w3.org/2000/svg">
<path d="M11.3256 0.978519C11.0228 0.668596 10.661 0.422331 10.2617 0.254197C9.86228 0.0860626 9.43332 -0.000549316 9 -0.000549316C8.56668 -0.000549316 8.13773 0.0860626 7.73835 0.254197C7.33898 0.422331 6.97724 0.668596 6.67439 0.978519L5.97457 1.69634L4.97322 1.68396C4.53977 1.67883 4.10967 1.76043 3.70821 1.92394C3.30675 2.08745 2.94204 2.32959 2.63553 2.6361C2.32901 2.94262 2.08688 3.30733 1.92336 3.70879C1.75985 4.11025 1.67826 4.54035 1.68339 4.9738L1.69464 5.97515L0.979068 6.67497C0.669145 6.97781 0.42288 7.33955 0.254746 7.73893C0.086612 8.1383 0 8.56725 0 9.00058C0 9.4339 0.086612 9.86285 0.254746 10.2622C0.42288 10.6616 0.669145 11.0233 0.979068 11.3262L1.69577 12.026L1.68339 13.0274C1.67826 13.4608 1.75985 13.8909 1.92336 14.2924C2.08688 14.6938 2.32901 15.0585 2.63553 15.365C2.94204 15.6716 3.30675 15.9137 3.70821 16.0772C4.10967 16.2407 4.53977 16.3223 4.97322 16.3172L5.97457 16.3059L6.67439 17.0215C6.97724 17.3314 7.33898 17.5777 7.73835 17.7458C8.13773 17.914 8.56668 18.0006 9 18.0006C9.43332 18.0006 9.86228 17.914 10.2617 17.7458C10.661 17.5777 11.0228 17.3314 11.3256 17.0215L12.0254 16.3048L13.0268 16.3172C13.4602 16.3223 13.8903 16.2407 14.2918 16.0772C14.6932 15.9137 15.058 15.6716 15.3645 15.365C15.671 15.0585 15.9131 14.6938 16.0766 14.2924C16.2402 13.8909 16.3217 13.4608 16.3166 13.0274L16.3054 12.026L17.0209 11.3262C17.3309 11.0233 17.5771 10.6616 17.7453 10.2622C17.9134 9.86285 18 9.4339 18 9.00058C18 8.56725 17.9134 8.1383 17.7453 7.73893C17.5771 7.33955 17.3309 6.97781 17.0209 6.67497L16.3042 5.97515L16.3166 4.9738C16.3217 4.54035 16.2402 4.11025 16.0766 3.70879C15.9131 3.30733 15.671 2.94262 15.3645 2.6361C15.058 2.32959 14.6932 2.08745 14.2918 1.92394C13.8903 1.76043 13.4602 1.67883 13.0268 1.68396L12.0254 1.69522L11.3256 0.979644V0.978519ZM11.6485 7.7112L8.27318 11.0865C8.22092 11.1389 8.15884 11.1805 8.0905 11.2088C8.02215 11.2372 7.94888 11.2518 7.87489 11.2518C7.80089 11.2518 7.72762 11.2372 7.65928 11.2088C7.59093 11.1805 7.52885 11.1389 7.4766 11.0865L5.78893 9.39887C5.73662 9.34656 5.69513 9.28447 5.66683 9.21613C5.63852 9.14779 5.62395 9.07454 5.62395 9.00058C5.62395 8.92661 5.63852 8.85336 5.66683 8.78502C5.69513 8.71668 5.73662 8.65459 5.78893 8.60229C5.84123 8.54998 5.90333 8.50849 5.97166 8.48018C6.04 8.45188 6.11325 8.43731 6.18722 8.43731C6.26119 8.43731 6.33443 8.45188 6.40277 8.48018C6.47111 8.50849 6.5332 8.54998 6.58551 8.60229L7.87489 9.89279L10.8519 6.91462C10.9576 6.80898 11.1008 6.74964 11.2502 6.74964C11.3996 6.74964 11.5429 6.80898 11.6485 6.91462C11.7541 7.02025 11.8135 7.16352 11.8135 7.31291C11.8135 7.46229 11.7541 7.60556 11.6485 7.7112Z" fill="white"/>
</svg>
