<svg width="28" height="28" viewBox="0 0 28 28" fill="none" xmlns="http://www.w3.org/2000/svg">
<mask id="mask0_173_542" style="mask-type:alpha" maskUnits="userSpaceOnUse" x="0" y="0" width="28" height="28">
<rect width="28" height="28" fill="#C4C4C4"/>
</mask>
<g mask="url(#mask0_173_542)">
<path d="M26.4604 8.83515L14.6712 2.47331C14.3247 2.28665 13.9082 2.28665 13.5629 2.47331L1.77956 8.83515C1.21256 9.14315 1.00139 9.85013 1.30706 10.4171C1.51706 10.808 1.91956 11.0296 2.33372 11.0296C2.52039 11.0296 2.71172 10.9853 2.88789 10.8896L3.74422 10.4276L5.59922 23.5526C5.85122 24.969 7.12756 25.9583 8.70256 25.9583H19.5315C21.1065 25.9583 22.3829 24.969 22.6372 23.5223L24.4899 10.4265L25.3497 10.8908C25.9155 11.1976 26.6237 10.9865 26.9294 10.4195C27.2362 9.85247 27.0227 9.14431 26.458 8.83864L26.4604 8.83515ZM14.117 18.2676C12.0229 18.2676 10.3254 16.5701 10.3254 14.476C10.3254 12.3818 12.0229 10.6843 14.117 10.6843C16.2112 10.6843 17.9087 12.3818 17.9087 14.476C17.9087 16.5701 16.2112 18.2676 14.117 18.2676Z" fill="white"/>
</g>
</svg>
