<svg width="37" height="36" viewBox="0 0 37 36" fill="none" xmlns="http://www.w3.org/2000/svg">
<ellipse cx="18.5" cy="18" rx="18.5" ry="18" fill="#1D9BF0"/>
<path d="M29.022 17.206L23.404 15.014L21.244 8.514C21.142 8.207 20.854 8 20.532 8C20.21 8 19.922 8.207 19.82 8.513L17.66 15.013L12.04 17.205C11.753 17.317 11.563 17.595 11.563 17.905C11.563 18.215 11.753 18.49 12.041 18.603L17.661 20.795L19.821 27.295C19.923 27.601 20.211 27.808 20.533 27.808C20.855 27.808 21.143 27.601 21.245 27.295L23.405 20.795L29.025 18.603C29.312 18.491 29.502 18.213 29.502 17.903C29.502 17.593 29.312 17.318 29.024 17.206H29.022ZM22.532 19.526C22.324 19.606 22.162 19.776 22.092 19.986L20.532 24.681L18.972 19.988C18.902 19.778 18.742 19.608 18.534 19.526L14.379 17.906L18.533 16.284C18.741 16.204 18.903 16.034 18.973 15.822L20.533 11.129L22.093 15.823C22.163 16.035 22.323 16.205 22.531 16.286L26.686 17.906L22.531 19.528L22.532 19.526ZM12.913 10.512H11.033V8.75C11.033 8.336 10.696 8 10.283 8C9.87 8 9.533 8.336 9.533 8.75V10.512H7.75C7.336 10.512 7 10.848 7 11.262C7 11.676 7.336 12.012 7.75 12.012H9.532V13.774C9.532 14.188 9.868 14.524 10.282 14.524C10.696 14.524 11.032 14.188 11.032 13.774V12.012H12.912C13.327 12.012 13.662 11.676 13.662 11.262C13.662 10.848 13.328 10.512 12.913 10.512ZM15.448 26.134H14.348V25.118C14.348 24.704 14.013 24.368 13.598 24.368C13.183 24.368 12.848 24.704 12.848 25.118V26.134H11.82C11.406 26.134 11.07 26.47 11.07 26.884C11.07 27.298 11.406 27.634 11.82 27.634H12.85V28.65C12.85 29.064 13.185 29.4 13.6 29.4C14.015 29.4 14.35 29.064 14.35 28.65V27.634H15.448C15.862 27.634 16.198 27.298 16.198 26.884C16.198 26.47 15.862 26.134 15.448 26.134Z" fill="white"/>
</svg>
